<svg id="Layer_1" data-name="Layer 1" xmlns="http://www.w3.org/2000/svg" viewBox="0 0 109.93 169.43"><defs><style>.cls-1{fill:#f9f9f9;}.cls-2{fill:#f6f2ea;}</style></defs><path class="cls-1" d="M44.26.74A55.1,55.1,0,0,0,.71,44.59a75.53,75.53,0,0,0,0,20.7,55,55,0,0,0,30.6,39.6l3.55,1.7,9.65,30.95c5.35,17.05,9.85,31.25,10.05,31.55s.5.45.8,0,4.7-14.5,10-31.55l9.65-30.95,3.55-1.7a55,55,0,0,0,30.6-39.6,75.53,75.53,0,0,0,0-20.7A55,55,0,0,0,65.31.69C60.41-.26,49-.21,44.26.74Z" transform="translate(0 0)"/><circle class="cls-2" cx="54.96" cy="53.17" r="45.84"/></svg>